<mxfile host="app.diagrams.net" modified="2020-12-16T13:18:09.399Z" agent="5.0 (Windows NT 10.0; Win64; x64) AppleWebKit/537.36 (KHTML, like Gecko) Chrome/87.0.4280.88 Safari/537.36" etag="NJletKngKgx7P-MFuzAr" version="14.0.3" type="github">
  <diagram id="feWMyJ2JA-bkwLYrZOG4" name="第 1 页">
    <mxGraphModel dx="868" dy="428" grid="1" gridSize="10" guides="1" tooltips="1" connect="1" arrows="1" fold="1" page="1" pageScale="1" pageWidth="827" pageHeight="1169" math="0" shadow="0">
      <root>
        <mxCell id="0" />
        <mxCell id="1" parent="0" />
        <mxCell id="zZyJ8hrBkpWKRkzXpiwk-2" value="总违约期数" style="rounded=0;whiteSpace=wrap;html=1;" vertex="1" parent="1">
          <mxGeometry x="270" y="80" width="100" height="40" as="geometry" />
        </mxCell>
      </root>
    </mxGraphModel>
  </diagram>
</mxfile>
